{
  "accessors": [
    {
      "bufferView": 2,
      "componentType": 5126,
      "count": 1315,
      "max": [
        -18.063034057617188,
        2.0232887268066406,
        7.6617207527160645
      ],
      "min": [
        -64.06303405761719,
        -43.72472381591797,
        0.0
      ],
      "type": "VEC3"
    },
    {
      "bufferView": 2,
      "byteOffset": 15780,
      "componentType": 5126,
      "count": 1315,
      "max": [
        1.0,
        0.994521975517273,
        1.0
      ],
      "min": [
        -1.0,
        -0.9946884512901306,
        -1.0
      ],
      "type": "VEC3"
    },
    {
      "bufferView": 3,
      "componentType": 5126,
      "count": 1315,
      "max": [
        0.9945220351219177,
        1.0,
        0.9941787123680115,
        1.0
      ],
      "min": [
        -0.994521975517273,
        -1.0,
        -0.9752673506736755,
        1.0
      ],
      "type": "VEC4"
    },
    {
      "bufferView": 1,
      "componentType": 5126,
      "count": 1315,
      "max": [
        0.9900000095367432,
        0.9902926683425903
      ],
      "min": [
        0.015560504980385303,
        0.009999999776482582
      ],
      "type": "VEC2"
    },
    {
      "bufferView": 0,
      "componentType": 5125,
      "count": 6840,
      "type": "SCALAR"
    },
    {
      "bufferView": 2,
      "byteOffset": 31560,
      "componentType": 5126,
      "count": 595,
      "max": [
        -26.781085968017578,
        6.9195098876953125,
        56.57703399658203
      ],
      "min": [
        -67.69802856445313,
        -32.54640579223633,
        2.041069984436035
      ],
      "type": "VEC3"
    },
    {
      "bufferView": 2,
      "byteOffset": 38700,
      "componentType": 5126,
      "count": 595,
      "max": [
        0.9997111558914185,
        0.9998723864555359,
        0.9983327388763428
      ],
      "min": [
        -0.9999609589576721,
        -0.9984432458877563,
        -0.994330644607544
      ],
      "type": "VEC3"
    },
    {
      "bufferView": 3,
      "byteOffset": 21040,
      "componentType": 5126,
      "count": 595,
      "max": [
        0.999987006187439,
        0.9999929666519165,
        0.9952353239059448,
        1.0
      ],
      "min": [
        -0.9999986886978149,
        -0.999877393245697,
        -0.9925484657287598,
        1.0
      ],
      "type": "VEC4"
    },
    {
      "bufferView": 1,
      "byteOffset": 10520,
      "componentType": 5126,
      "count": 595,
      "max": [
        0.9890128970146179,
        0.9844760298728943
      ],
      "min": [
        0.02628496289253235,
        0.05420197919011116
      ],
      "type": "VEC2"
    },
    {
      "bufferView": 0,
      "byteOffset": 27360,
      "componentType": 5125,
      "count": 3180,
      "type": "SCALAR"
    },
    {
      "bufferView": 2,
      "byteOffset": 45840,
      "componentType": 5126,
      "count": 430,
      "max": [
        -20.037921905517578,
        -7.922004699707031,
        26.780933380126953
      ],
      "min": [
        -41.66850280761719,
        -31.21435546875,
        1.8516600131988525
      ],
      "type": "VEC3"
    },
    {
      "bufferView": 2,
      "byteOffset": 51000,
      "componentType": 5126,
      "count": 430,
      "max": [
        0.9931572079658508,
        0.999862551689148,
        0.9968529343605042
      ],
      "min": [
        -0.9958791136741638,
        -0.9990949630737305,
        -0.996624231338501
      ],
      "type": "VEC3"
    },
    {
      "bufferView": 3,
      "byteOffset": 30560,
      "componentType": 5126,
      "count": 430,
      "max": [
        0.9982112646102905,
        0.9995008111000061,
        0.9928517937660217,
        1.0
      ],
      "min": [
        -0.9983009696006775,
        -0.9984786510467529,
        -0.997792661190033,
        1.0
      ],
      "type": "VEC4"
    },
    {
      "bufferView": 1,
      "byteOffset": 15280,
      "componentType": 5126,
      "count": 430,
      "max": [
        0.679405689239502,
        0.9839683771133423
      ],
      "min": [
        0.31450125575065613,
        0.04840771481394768
      ],
      "type": "VEC2"
    },
    {
      "bufferView": 0,
      "byteOffset": 40080,
      "componentType": 5125,
      "count": 2220,
      "type": "SCALAR"
    },
    {
      "bufferView": 2,
      "byteOffset": 56160,
      "componentType": 5126,
      "count": 230,
      "max": [
        -33.61936950683594,
        -9.686661720275879,
        14.553791046142578
      ],
      "min": [
        -41.60400390625,
        -17.128454208374023,
        3.561420202255249
      ],
      "type": "VEC3"
    },
    {
      "bufferView": 2,
      "byteOffset": 58920,
      "componentType": 5126,
      "count": 230,
      "max": [
        0.994676411151886,
        0.994766891002655,
        0.9754547476768494
      ],
      "min": [
        -0.9983219504356384,
        -0.9939844012260437,
        -0.8971747756004333
      ],
      "type": "VEC3"
    },
    {
      "bufferView": 3,
      "byteOffset": 37440,
      "componentType": 5126,
      "count": 230,
      "max": [
        0.9919211268424988,
        0.9942833781242371,
        0.514643669128418,
        1.0
      ],
      "min": [
        -0.999809741973877,
        -0.9943234324455261,
        -0.9423665404319763,
        1.0
      ],
      "type": "VEC4"
    },
    {
      "bufferView": 1,
      "byteOffset": 18720,
      "componentType": 5126,
      "count": 230,
      "max": [
        0.9676278829574585,
        0.37326115369796753
      ],
      "min": [
        0.6120110154151917,
        0.06061523035168648
      ],
      "type": "VEC2"
    },
    {
      "bufferView": 0,
      "byteOffset": 48960,
      "componentType": 5125,
      "count": 1188,
      "type": "SCALAR"
    },
    {
      "bufferView": 2,
      "byteOffset": 61680,
      "componentType": 5126,
      "count": 230,
      "max": [
        -31.50958824157715,
        -28.04479217529297,
        13.020729064941406
      ],
      "min": [
        -38.0287971496582,
        -34.246604919433594,
        3.6629066467285156
      ],
      "type": "VEC3"
    },
    {
      "bufferView": 2,
      "byteOffset": 64440,
      "componentType": 5126,
      "count": 230,
      "max": [
        0.9991819262504578,
        0.9966888427734375,
        0.994701087474823
      ],
      "min": [
        -0.9998663067817688,
        -0.9998432397842407,
        -0.9600636959075928
      ],
      "type": "VEC3"
    },
    {
      "bufferView": 3,
      "byteOffset": 41120,
      "componentType": 5126,
      "count": 230,
      "max": [
        0.9999976754188538,
        0.9996312260627747,
        0.555254340171814,
        1.0
      ],
      "min": [
        -0.9998822808265686,
        -0.9999491572380066,
        -0.983573317527771,
        1.0
      ],
      "type": "VEC4"
    },
    {
      "bufferView": 1,
      "byteOffset": 20560,
      "componentType": 5126,
      "count": 230,
      "max": [
        0.9914476871490479,
        0.27929991483688354
      ],
      "min": [
        0.8067703247070313,
        0.06357486546039581
      ],
      "type": "VEC2"
    },
    {
      "bufferView": 0,
      "byteOffset": 53712,
      "componentType": 5125,
      "count": 1188,
      "type": "SCALAR"
    },
    {
      "bufferView": 2,
      "byteOffset": 67200,
      "componentType": 5126,
      "count": 230,
      "max": [
        -50.07259750366211,
        -18.72158432006836,
        15.77892780303955
      ],
      "min": [
        -57.93910598754883,
        -26.568485260009766,
        3.6629066467285156
      ],
      "type": "VEC3"
    },
    {
      "bufferView": 2,
      "byteOffset": 69960,
      "componentType": 5126,
      "count": 230,
      "max": [
        0.9968252778053284,
        0.9970605373382568,
        0.9899305701255798
      ],
      "min": [
        -0.9999756813049316,
        -0.9997774362564087,
        -0.994712233543396
      ],
      "type": "VEC3"
    },
    {
      "bufferView": 3,
      "byteOffset": 44800,
      "componentType": 5126,
      "count": 230,
      "max": [
        0.9994840025901794,
        0.9997714757919312,
        0.9976779818534851,
        1.0
      ],
      "min": [
        -0.9999837279319763,
        -0.9999904632568359,
        -0.672160267829895,
        1.0
      ],
      "type": "VEC4"
    },
    {
      "bufferView": 1,
      "byteOffset": 22400,
      "componentType": 5126,
      "count": 230,
      "max": [
        0.8957026600837708,
        0.33851906657218933
      ],
      "min": [
        0.6157001256942749,
        0.20797285437583923
      ],
      "type": "VEC2"
    },
    {
      "bufferView": 0,
      "byteOffset": 58464,
      "componentType": 5125,
      "count": 1188,
      "type": "SCALAR"
    },
    {
      "bufferView": 2,
      "byteOffset": 72720,
      "componentType": 5126,
      "count": 114,
      "max": [
        2.6792781352996826,
        2.967012405395508,
        2.858346939086914
      ],
      "min": [
        -3.09714937210083,
        -3.0143051147460938,
        0.7558572292327881
      ],
      "type": "VEC3"
    },
    {
      "bufferView": 2,
      "byteOffset": 74088,
      "componentType": 5126,
      "count": 114,
      "max": [
        0.9996138215065002,
        0.9933772087097168,
        0.9999921917915344
      ],
      "min": [
        -0.9973939657211304,
        -0.9808405041694641,
        -0.12412359565496445
      ],
      "type": "VEC3"
    },
    {
      "bufferView": 3,
      "byteOffset": 48480,
      "componentType": 5126,
      "count": 114,
      "max": [
        0.024028822779655457,
        0.6976684331893921,
        0.9726373553276062,
        1.0
      ],
      "min": [
        -0.9999122023582458,
        -0.6578801870346069,
        -0.9773790836334229,
        1.0
      ],
      "type": "VEC4"
    },
    {
      "bufferView": 1,
      "byteOffset": 24240,
      "componentType": 5126,
      "count": 114,
      "max": [
        0.7365589737892151,
        0.4247232675552368
      ],
      "min": [
        0.6275341510772705,
        0.35233014822006226
      ],
      "type": "VEC2"
    },
    {
      "bufferView": 0,
      "byteOffset": 63216,
      "componentType": 5125,
      "count": 276,
      "type": "SCALAR"
    }
  ],
  "asset": {
    "extras": {
      "author": "Diego Duarte (https://sketchfab.com/juand_233)",
      "license": "CC-BY-4.0 (http://creativecommons.org/licenses/by/4.0/)",
      "source": "https://sketchfab.com/3d-models/hongo-fab-d210f39dfb3746e49fa7ed14b039560e",
      "title": "Hongo Fab"
    },
    "generator": "Sketchfab-12.67.0",
    "version": "2.0"
  },
  "bufferViews": [
    {
      "buffer": 0,
      "byteLength": 64320,
      "name": "floatBufferViews",
      "target": 34963
    },
    {
      "buffer": 0,
      "byteLength": 25152,
      "byteOffset": 64320,
      "byteStride": 8,
      "name": "floatBufferViews",
      "target": 34962
    },
    {
      "buffer": 0,
      "byteLength": 75456,
      "byteOffset": 89472,
      "byteStride": 12,
      "name": "floatBufferViews",
      "target": 34962
    },
    {
      "buffer": 0,
      "byteLength": 50304,
      "byteOffset": 164928,
      "byteStride": 16,
      "name": "floatBufferViews",
      "target": 34962
    }
  ],
  "buffers": [
    {
      "byteLength": 215232,
      "uri": "scene.bin"
    }
  ],
  "images": [
    {
      "uri": "textures/Hongo_baseColor.jpeg"
    },
    {
      "uri": "textures/Hongo_metallicRoughness.png"
    },
    {
      "uri": "textures/Hongo_normal.png"
    }
  ],
  "materials": [
    {
      "name": "Hongo",
      "normalTexture": {
        "index": 2
      },
      "occlusionTexture": {
        "index": 1
      },
      "pbrMetallicRoughness": {
        "baseColorTexture": {
          "index": 0
        },
        "metallicFactor": 0.0,
        "metallicRoughnessTexture": {
          "index": 1
        }
      }
    }
  ],
  "meshes": [
    {
      "name": "Ground_Hongo_0",
      "primitives": [
        {
          "attributes": {
            "NORMAL": 1,
            "POSITION": 0,
            "TANGENT": 2,
            "TEXCOORD_0": 3
          },
          "indices": 4,
          "material": 0,
          "mode": 4
        }
      ]
    },
    {
      "name": "Hongo_Big_Hongo_0",
      "primitives": [
        {
          "attributes": {
            "NORMAL": 6,
            "POSITION": 5,
            "TANGENT": 7,
            "TEXCOORD_0": 8
          },
          "indices": 9,
          "material": 0,
          "mode": 4
        }
      ]
    },
    {
      "name": "Hongo_Low_Hongo_0",
      "primitives": [
        {
          "attributes": {
            "NORMAL": 11,
            "POSITION": 10,
            "TANGENT": 12,
            "TEXCOORD_0": 13
          },
          "indices": 14,
          "material": 0,
          "mode": 4
        }
      ]
    },
    {
      "name": "Speaker_2_Hongo_0",
      "primitives": [
        {
          "attributes": {
            "NORMAL": 16,
            "POSITION": 15,
            "TANGENT": 17,
            "TEXCOORD_0": 18
          },
          "indices": 19,
          "material": 0,
          "mode": 4
        }
      ]
    },
    {
      "name": "Speaker_3_Hongo_0",
      "primitives": [
        {
          "attributes": {
            "NORMAL": 21,
            "POSITION": 20,
            "TANGENT": 22,
            "TEXCOORD_0": 23
          },
          "indices": 24,
          "material": 0,
          "mode": 4
        }
      ]
    },
    {
      "name": "Speaker_1_Hongo_0",
      "primitives": [
        {
          "attributes": {
            "NORMAL": 26,
            "POSITION": 25,
            "TANGENT": 27,
            "TEXCOORD_0": 28
          },
          "indices": 29,
          "material": 0,
          "mode": 4
        }
      ]
    },
    {
      "name": "Puerta_Hongo_0",
      "primitives": [
        {
          "attributes": {
            "NORMAL": 31,
            "POSITION": 30,
            "TANGENT": 32,
            "TEXCOORD_0": 33
          },
          "indices": 34,
          "material": 0,
          "mode": 4
        }
      ]
    }
  ],
  "nodes": [
    {
      "children": [
        1
      ],
      "matrix": [
        1.0,
        0.0,
        0.0,
        0.0,
        0.0,
        3.828568672208042e-16,
        -1.0,
        0.0,
        0.0,
        1.0,
        3.828568672208042e-16,
        0.0,
        0.0,
        1.9721522630525295e-31,
        -8.881784197001252e-16,
        1.0
      ],
      "name": "Sketchfab_model"
    },
    {
      "children": [
        2
      ],
      "matrix": [
        1.0,
        0.0,
        0.0,
        0.0,
        0.0,
        0.0,
        1.0,
        0.0,
        0.0,
        -1.0,
        0.0,
        0.0,
        0.0,
        0.0,
        0.0,
        1.0
      ],
      "name": "6639c85897e1473792b0c499d8ec686a.fbx"
    },
    {
      "children": [
        3,
        6,
        9,
        12,
        15,
        18,
        21
      ],
      "name": "RootNode"
    },
    {
      "children": [
        4
      ],
      "matrix": [
        1.0,
        0.0,
        0.0,
        0.0,
        0.0,
        2.220446049250313e-16,
        -1.0,
        0.0,
        0.0,
        1.0,
        2.220446049250313e-16,
        0.0,
        0.0,
        0.0,
        0.0,
        1.0
      ],
      "name": "Ground"
    },
    {
      "children": [
        5
      ],
      "matrix": [
        1.0,
        0.0,
        -0.0,
        0.0,
        0.0,
        1.0,
        0.0,
        0.0,
        0.0,
        0.0,
        1.0,
        0.0,
        41.06303405761719,
        20.85071563720703,
        0.0,
        1.0
      ],
      "name": "Object_4"
    },
    {
      "mesh": 0,
      "name": "Ground_Hongo_0"
    },
    {
      "children": [
        7
      ],
      "matrix": [
        1.0,
        0.0,
        0.0,
        0.0,
        0.0,
        2.220446049250313e-16,
        -1.0,
        0.0,
        0.0,
        1.0,
        2.220446049250313e-16,
        0.0,
        0.0,
        0.0,
        0.0,
        1.0
      ],
      "name": "Hongo_Big"
    },
    {
      "children": [
        8
      ],
      "matrix": [
        1.0,
        0.0,
        -0.0,
        0.0,
        0.0,
        1.0,
        0.0,
        0.0,
        0.0,
        0.0,
        1.0,
        0.0,
        41.06303405761719,
        20.85071563720703,
        0.0,
        1.0
      ],
      "name": "Object_7"
    },
    {
      "mesh": 1,
      "name": "Hongo_Big_Hongo_0"
    },
    {
      "children": [
        10
      ],
      "matrix": [
        1.0,
        0.0,
        0.0,
        0.0,
        0.0,
        2.220446049250313e-16,
        -1.0,
        0.0,
        0.0,
        1.0,
        2.220446049250313e-16,
        0.0,
        0.0,
        0.0,
        0.0,
        1.0
      ],
      "name": "Hongo_Low"
    },
    {
      "children": [
        11
      ],
      "matrix": [
        1.0,
        0.0,
        -0.0,
        0.0,
        0.0,
        1.0,
        0.0,
        0.0,
        0.0,
        0.0,
        1.0,
        0.0,
        41.06303405761719,
        20.85071563720703,
        0.0,
        1.0
      ],
      "name": "Object_10"
    },
    {
      "mesh": 2,
      "name": "Hongo_Low_Hongo_0"
    },
    {
      "children": [
        13
      ],
      "matrix": [
        1.0,
        0.0,
        0.0,
        0.0,
        0.0,
        2.220446049250313e-16,
        -1.0,
        0.0,
        0.0,
        1.0,
        2.220446049250313e-16,
        0.0,
        0.0,
        0.0,
        0.0,
        1.0
      ],
      "name": "Speaker_2"
    },
    {
      "children": [
        14
      ],
      "matrix": [
        1.0,
        0.0,
        -0.0,
        0.0,
        0.0,
        1.0,
        0.0,
        0.0,
        0.0,
        0.0,
        1.0,
        0.0,
        41.06303405761719,
        20.85071563720703,
        0.0,
        1.0
      ],
      "name": "Object_13"
    },
    {
      "mesh": 3,
      "name": "Speaker_2_Hongo_0"
    },
    {
      "children": [
        16
      ],
      "matrix": [
        1.0,
        0.0,
        0.0,
        0.0,
        0.0,
        2.220446049250313e-16,
        -1.0,
        0.0,
        0.0,
        1.0,
        2.220446049250313e-16,
        0.0,
        0.0,
        0.0,
        0.0,
        1.0
      ],
      "name": "Speaker_3"
    },
    {
      "children": [
        17
      ],
      "matrix": [
        1.0,
        0.0,
        -0.0,
        0.0,
        0.0,
        1.0,
        0.0,
        0.0,
        0.0,
        0.0,
        1.0,
        0.0,
        41.06303405761719,
        20.85071563720703,
        0.0,
        1.0
      ],
      "name": "Object_16"
    },
    {
      "mesh": 4,
      "name": "Speaker_3_Hongo_0"
    },
    {
      "children": [
        19
      ],
      "matrix": [
        1.0,
        0.0,
        0.0,
        0.0,
        0.0,
        2.220446049250313e-16,
        -1.0,
        0.0,
        0.0,
        1.0,
        2.220446049250313e-16,
        0.0,
        0.0,
        0.0,
        0.0,
        1.0
      ],
      "name": "Speaker_1"
    },
    {
      "children": [
        20
      ],
      "matrix": [
        1.0,
        0.0,
        -0.0,
        0.0,
        0.0,
        1.0,
        0.0,
        0.0,
        0.0,
        0.0,
        1.0,
        0.0,
        41.06303405761719,
        20.85071563720703,
        0.0,
        1.0
      ],
      "name": "Object_19"
    },
    {
      "mesh": 5,
      "name": "Speaker_1_Hongo_0"
    },
    {
      "children": [
        22
      ],
      "matrix": [
        0.9659258257467467,
        1.5848095630968816e-17,
        -0.2588190471264928,
        0.0,
        1.131334002799174e-08,
        -0.9999999999999991,
        4.222195937265303e-08,
        0.0,
        -0.25881904712649256,
        -4.37113888575383e-08,
        -0.9659258257467458,
        0.0,
        -6.088166236877441,
        6.570545196533203,
        -7.763027191162109,
        1.0
      ],
      "name": "Puerta"
    },
    {
      "children": [
        23
      ],
      "matrix": [
        1.0,
        0.0,
        -0.0,
        0.0,
        0.0,
        1.0,
        0.0,
        0.0,
        0.0,
        0.0,
        1.0,
        0.0,
        0.20893576741218567,
        0.023646432906389236,
        -1.807102084159851,
        1.0
      ],
      "name": "Object_22"
    },
    {
      "mesh": 6,
      "name": "Puerta_Hongo_0"
    }
  ],
  "samplers": [
    {
      "magFilter": 9729,
      "minFilter": 9987,
      "wrapS": 10497,
      "wrapT": 10497
    }
  ],
  "scene": 0,
  "scenes": [
    {
      "name": "Sketchfab_Scene",
      "nodes": [
        0
      ]
    }
  ],
  "textures": [
    {
      "sampler": 0,
      "source": 0
    },
    {
      "sampler": 0,
      "source": 1
    },
    {
      "sampler": 0,
      "source": 2
    }
  ]
}
